# xmcd CD database file
# Copyright (C) 1993-1998 Ti Kan
#
# Track frame offsets:
#	182
#	17297
#	31400
#	45037
#	60650
#	79797
#	92347
#	114555
#	132315
#	147615
#	157225
#	176735
#	194972
#	211795
#	231800
#	254332
#
# Disc length: 3748 seconds
#
# Revision: 2
# Processed by: cddbd v1.4b41PL1 Copyright (c) Steve Scherf et al.
# Submitted via: CDValet v3.31 - Copyright (c) 1997 Greg Leichner
#
DISCID=d90ea210
DTITLE=Fagner, Elba, Ze, Amelinha - Fagner, Elba, Ze, Amelinha
DYEAR=1900
DGENRE=
TTITLE0=Cebola Cortada
TTITLE1=Cajuina
TTITLE2=Entre a Serpente e a Estrela (Amarillo By Money)
TTITLE3=Flor da Paisagem
TTITLE4=Revelacao
TTITLE5=Banquete de Signos
TTITLE6=Admiravel Gado Novo
TTITLE7=Foi Deus Que Fez Voce
TTITLE8=Conflito
TTITLE9=Nao Sonho Mais
TTITLE10=A Terceira Lamina
TTITLE11=Frevo Mulher
TTITLE12=Fanatismo
TTITLE13=Ave de Prata
TTITLE14=Avoha!
TTITLE15=MulherNova, Bonita e Carinhosa Faz o Homem Gemer Sem S
TTITLE15=entir Dor
EXTD=
EXTT0=
EXTT1=
EXTT2=
EXTT3=
EXTT4=
EXTT5=
EXTT6=
EXTT7=
EXTT8=
EXTT9=
EXTT10=
EXTT11=
EXTT12=
EXTT13=
EXTT14=
EXTT15=
PLAYORDER=
